<svg xmlns="http://www.w3.org/2000/svg">
<path d="M1.54897 12.7961C0.779465 14.1183 0.266998 15.6075 0.0802307 17.195C0.0795441 17.2 0.0790863 17.205 0.0783997 17.2101C0.0275879 17.6472 0.000579834 18.0917 0.000579834 18.5424C0.000579834 21.5183 1.14133 24.2326 3.00809 26.2717C3.03784 26.3134 3.07286 26.3514 3.11269 26.3841C4.3253 27.6739 5.83226 28.6839 7.52576 29.3047C7.5562 29.3184 7.58778 29.3298 7.62006 29.3381C8.82054 29.7661 10.1124 30 11.4582 30C12.9592 30 14.3936 29.7093 15.7085 29.1822C15.7442 29.1714 15.7785 29.1573 15.8117 29.1399C17.4286 28.4734 18.8604 27.4471 20.0076 26.1614C20.0451 26.1282 20.0786 26.0909 20.1067 26.0497C21.8556 24.0374 22.9158 21.4114 22.9158 18.5424C22.9158 18.1123 22.8911 17.6878 22.8446 17.2698C22.8441 17.2646 22.8434 17.2595 22.8428 17.2545C22.7576 16.496 22.5981 15.7599 22.3717 15.0533L28.5266 8.89847C28.7555 8.66959 28.7555 8.29857 28.5266 8.06969C28.4121 7.95525 28.2622 7.89803 28.1123 7.89803C27.9624 7.89803 27.8125 7.95525 27.698 8.06969L21.9124 13.8551C21.7512 13.4974 21.5722 13.149 21.3765 12.8119C21.3587 12.7716 21.336 12.7338 21.3097 12.6988C19.8572 10.2596 17.5254 8.40294 14.7545 7.56889L18.8822 3.44147C19.1108 3.21259 19.1108 2.84157 18.8822 2.61269C18.7677 2.49825 18.6176 2.44102 18.4677 2.44102C18.3178 2.44102 18.1678 2.49825 18.0534 2.61269L13.4137 7.25258C12.7779 7.14272 12.1247 7.08481 11.4582 7.08481C7.28452 7.08481 3.62538 9.32854 1.62221 12.6727C1.59291 12.7107 1.56819 12.7519 1.54897 12.7961ZM6.6187 12.773L8.70335 15.981L7.59488 19.3925L4.96022 19.9841L4.27472 20.1379L1.27934 17.062C1.4613 15.805 1.87146 14.6207 2.46655 13.5528L6.6187 12.773ZM14.2128 15.981L16.2965 12.7746L20.4615 13.5738C21.0582 14.6507 21.4669 15.8455 21.6441 17.1135L18.6448 20.1389L15.3212 19.3925L14.5826 17.119L14.2128 15.981ZM19.9868 24.2862L19.4583 20.9827L21.7421 18.679C21.7148 20.7525 21.0719 22.6801 19.9868 24.2862ZM13.1434 16.482L14.1784 19.6674L11.4689 21.6357L8.75943 19.6671L9.79443 16.482H13.1434ZM1.1736 18.633L3.46928 20.9905L3.06348 24.4796C1.88931 22.8241 1.1926 20.8081 1.1736 18.633ZM4.09871 25.7204L4.61736 21.262L5.87804 20.9791L7.91898 20.5209L10.8615 22.6586V25.8307L7.6814 28.1099C6.32161 27.5711 5.10373 26.7503 4.09871 25.7204ZM9.07918 28.5498L11.4829 26.827L14.1626 28.4665C13.3004 28.7018 12.3938 28.8281 11.4582 28.8281C10.6395 28.8281 9.84296 28.7315 9.07918 28.5498ZM15.5847 27.963L12.0549 25.8032V22.6586L14.1304 21.1507L14.9971 20.5209L18.3168 21.2661L18.9989 25.5295C18.0456 26.5576 16.8854 27.391 15.5847 27.963ZM19.5553 12.2067L16.3938 11.5997L14.7836 8.80875C16.6858 9.46037 18.3384 10.6549 19.5553 12.2067ZM13.1974 8.40454L15.3331 12.1065L13.2512 15.3101H9.66512L7.58321 12.1065L9.71844 8.40477C10.2842 8.30795 10.8654 8.25691 11.4582 8.25691C12.051 8.25668 12.6319 8.30772 13.1974 8.40454ZM8.13252 8.80875L6.52325 11.5986L3.37384 12.1902C4.58943 10.6464 6.23692 9.45808 8.13252 8.80875Z" fill="#334382"/>
</svg>
